<mxfile host="app.diagrams.net" modified="2020-07-26T12:29:17.355Z" agent="5.0 (Macintosh; Intel Mac OS X 10_15_6) AppleWebKit/605.1.15 (KHTML, like Gecko) Version/13.1.2 Safari/605.1.15" etag="X5Cl0mZbtg1jdwI-aguh" version="13.5.3" type="github">
  <diagram id="sKPflnDRULI142apJehf" name="Page-1">
    <mxGraphModel dx="1298" dy="857" grid="1" gridSize="10" guides="1" tooltips="1" connect="1" arrows="1" fold="1" page="1" pageScale="1" pageWidth="827" pageHeight="1169" math="0" shadow="0">
      <root>
        <mxCell id="0" />
        <mxCell id="1" parent="0" />
        <mxCell id="4pHcyMfc-KCYcVZLZhmS-9" style="edgeStyle=orthogonalEdgeStyle;rounded=0;orthogonalLoop=1;jettySize=auto;html=1;exitX=1;exitY=0.25;exitDx=0;exitDy=0;entryX=0;entryY=0.25;entryDx=0;entryDy=0;" edge="1" parent="1" source="4pHcyMfc-KCYcVZLZhmS-2" target="4pHcyMfc-KCYcVZLZhmS-3">
          <mxGeometry relative="1" as="geometry" />
        </mxCell>
        <mxCell id="4pHcyMfc-KCYcVZLZhmS-11" value="" style="edgeStyle=orthogonalEdgeStyle;rounded=0;orthogonalLoop=1;jettySize=auto;html=1;" edge="1" parent="1" source="4pHcyMfc-KCYcVZLZhmS-2" target="4pHcyMfc-KCYcVZLZhmS-10">
          <mxGeometry relative="1" as="geometry" />
        </mxCell>
        <mxCell id="4pHcyMfc-KCYcVZLZhmS-2" value="Login" style="rounded=0;whiteSpace=wrap;html=1;" vertex="1" parent="1">
          <mxGeometry x="360" y="40" width="120" height="40" as="geometry" />
        </mxCell>
        <mxCell id="4pHcyMfc-KCYcVZLZhmS-8" style="edgeStyle=orthogonalEdgeStyle;rounded=0;orthogonalLoop=1;jettySize=auto;html=1;exitX=0;exitY=0.75;exitDx=0;exitDy=0;entryX=1;entryY=0.75;entryDx=0;entryDy=0;" edge="1" parent="1" source="4pHcyMfc-KCYcVZLZhmS-3" target="4pHcyMfc-KCYcVZLZhmS-2">
          <mxGeometry relative="1" as="geometry" />
        </mxCell>
        <mxCell id="4pHcyMfc-KCYcVZLZhmS-3" value="Signup" style="rounded=0;whiteSpace=wrap;html=1;" vertex="1" parent="1">
          <mxGeometry x="560" y="40" width="120" height="40" as="geometry" />
        </mxCell>
        <mxCell id="4pHcyMfc-KCYcVZLZhmS-15" style="edgeStyle=orthogonalEdgeStyle;rounded=0;orthogonalLoop=1;jettySize=auto;html=1;exitX=0;exitY=0.75;exitDx=0;exitDy=0;entryX=1;entryY=0.75;entryDx=0;entryDy=0;" edge="1" parent="1" source="4pHcyMfc-KCYcVZLZhmS-10" target="4pHcyMfc-KCYcVZLZhmS-12">
          <mxGeometry relative="1" as="geometry" />
        </mxCell>
        <mxCell id="4pHcyMfc-KCYcVZLZhmS-18" value="" style="edgeStyle=orthogonalEdgeStyle;rounded=0;orthogonalLoop=1;jettySize=auto;html=1;dashed=1;" edge="1" parent="1" source="4pHcyMfc-KCYcVZLZhmS-10" target="4pHcyMfc-KCYcVZLZhmS-17">
          <mxGeometry relative="1" as="geometry" />
        </mxCell>
        <mxCell id="4pHcyMfc-KCYcVZLZhmS-25" value="" style="edgeStyle=orthogonalEdgeStyle;rounded=0;orthogonalLoop=1;jettySize=auto;html=1;" edge="1" parent="1" source="4pHcyMfc-KCYcVZLZhmS-10" target="4pHcyMfc-KCYcVZLZhmS-24">
          <mxGeometry relative="1" as="geometry" />
        </mxCell>
        <mxCell id="4pHcyMfc-KCYcVZLZhmS-10" value="Home" style="rounded=0;whiteSpace=wrap;html=1;" vertex="1" parent="1">
          <mxGeometry x="360" y="160" width="120" height="40" as="geometry" />
        </mxCell>
        <mxCell id="4pHcyMfc-KCYcVZLZhmS-14" style="edgeStyle=orthogonalEdgeStyle;rounded=0;orthogonalLoop=1;jettySize=auto;html=1;exitX=1;exitY=0.25;exitDx=0;exitDy=0;entryX=0;entryY=0.25;entryDx=0;entryDy=0;" edge="1" parent="1" source="4pHcyMfc-KCYcVZLZhmS-12" target="4pHcyMfc-KCYcVZLZhmS-10">
          <mxGeometry relative="1" as="geometry" />
        </mxCell>
        <mxCell id="4pHcyMfc-KCYcVZLZhmS-20" style="edgeStyle=orthogonalEdgeStyle;rounded=0;orthogonalLoop=1;jettySize=auto;html=1;exitX=0;exitY=0.5;exitDx=0;exitDy=0;entryX=1;entryY=0.5;entryDx=0;entryDy=0;dashed=1;" edge="1" parent="1" source="4pHcyMfc-KCYcVZLZhmS-12" target="4pHcyMfc-KCYcVZLZhmS-19">
          <mxGeometry relative="1" as="geometry" />
        </mxCell>
        <mxCell id="4pHcyMfc-KCYcVZLZhmS-12" value="Profile" style="rounded=0;whiteSpace=wrap;html=1;" vertex="1" parent="1">
          <mxGeometry x="160" y="160" width="120" height="40" as="geometry" />
        </mxCell>
        <mxCell id="4pHcyMfc-KCYcVZLZhmS-17" value="GamePlayListView" style="rounded=0;whiteSpace=wrap;html=1;dashed=1;" vertex="1" parent="1">
          <mxGeometry x="560" y="160" width="120" height="40" as="geometry" />
        </mxCell>
        <mxCell id="4pHcyMfc-KCYcVZLZhmS-19" value="Info&lt;br&gt;Photo&amp;nbsp;" style="shape=parallelogram;perimeter=parallelogramPerimeter;whiteSpace=wrap;html=1;fixedSize=1;dashed=1;" vertex="1" parent="1">
          <mxGeometry y="150" width="140" height="60" as="geometry" />
        </mxCell>
        <mxCell id="4pHcyMfc-KCYcVZLZhmS-37" value="" style="edgeStyle=orthogonalEdgeStyle;rounded=0;orthogonalLoop=1;jettySize=auto;html=1;dashed=1;" edge="1" parent="1" source="4pHcyMfc-KCYcVZLZhmS-21" target="4pHcyMfc-KCYcVZLZhmS-36">
          <mxGeometry relative="1" as="geometry" />
        </mxCell>
        <mxCell id="4pHcyMfc-KCYcVZLZhmS-21" value="Mission&amp;nbsp;" style="rounded=0;whiteSpace=wrap;html=1;" vertex="1" parent="1">
          <mxGeometry x="360" y="440" width="120" height="40" as="geometry" />
        </mxCell>
        <mxCell id="4pHcyMfc-KCYcVZLZhmS-28" value="True" style="edgeStyle=orthogonalEdgeStyle;rounded=0;orthogonalLoop=1;jettySize=auto;html=1;" edge="1" parent="1" source="4pHcyMfc-KCYcVZLZhmS-24" target="4pHcyMfc-KCYcVZLZhmS-27">
          <mxGeometry relative="1" as="geometry" />
        </mxCell>
        <mxCell id="4pHcyMfc-KCYcVZLZhmS-30" value="" style="edgeStyle=orthogonalEdgeStyle;rounded=0;orthogonalLoop=1;jettySize=auto;html=1;entryX=0.25;entryY=0;entryDx=0;entryDy=0;exitX=0.25;exitY=1;exitDx=0;exitDy=0;" edge="1" parent="1" source="4pHcyMfc-KCYcVZLZhmS-24" target="4pHcyMfc-KCYcVZLZhmS-21">
          <mxGeometry relative="1" as="geometry" />
        </mxCell>
        <mxCell id="4pHcyMfc-KCYcVZLZhmS-31" value="false&lt;br&gt;" style="edgeLabel;html=1;align=center;verticalAlign=middle;resizable=0;points=[];" vertex="1" connectable="0" parent="4pHcyMfc-KCYcVZLZhmS-30">
          <mxGeometry x="0.125" y="2" relative="1" as="geometry">
            <mxPoint as="offset" />
          </mxGeometry>
        </mxCell>
        <mxCell id="4pHcyMfc-KCYcVZLZhmS-24" value="If new" style="rounded=0;whiteSpace=wrap;html=1;" vertex="1" parent="1">
          <mxGeometry x="360" y="280" width="120" height="40" as="geometry" />
        </mxCell>
        <mxCell id="4pHcyMfc-KCYcVZLZhmS-33" value="" style="edgeStyle=orthogonalEdgeStyle;rounded=0;orthogonalLoop=1;jettySize=auto;html=1;exitX=0.25;exitY=1;exitDx=0;exitDy=0;" edge="1" parent="1" source="4pHcyMfc-KCYcVZLZhmS-27">
          <mxGeometry relative="1" as="geometry">
            <mxPoint x="450" y="440" as="targetPoint" />
            <Array as="points">
              <mxPoint x="590" y="410" />
              <mxPoint x="450" y="410" />
            </Array>
          </mxGeometry>
        </mxCell>
        <mxCell id="4pHcyMfc-KCYcVZLZhmS-27" value="Questions" style="rounded=0;whiteSpace=wrap;html=1;" vertex="1" parent="1">
          <mxGeometry x="560" y="280" width="120" height="40" as="geometry" />
        </mxCell>
        <mxCell id="4pHcyMfc-KCYcVZLZhmS-34" value="always send the gameplay id (or ref)&amp;nbsp;" style="text;html=1;strokeColor=none;fillColor=none;align=center;verticalAlign=middle;whiteSpace=wrap;rounded=0;dashed=1;fontStyle=2" vertex="1" parent="1">
          <mxGeometry x="420" y="340" width="120" height="30" as="geometry" />
        </mxCell>
        <mxCell id="4pHcyMfc-KCYcVZLZhmS-36" value="Proposer la mission&lt;br&gt;ou Voir en cour&lt;br&gt;Valider kill" style="shape=parallelogram;perimeter=parallelogramPerimeter;whiteSpace=wrap;html=1;fixedSize=1;dashed=1;" vertex="1" parent="1">
          <mxGeometry x="120" y="430" width="160" height="60" as="geometry" />
        </mxCell>
        <mxCell id="4pHcyMfc-KCYcVZLZhmS-40" value="" style="edgeStyle=orthogonalEdgeStyle;rounded=0;orthogonalLoop=1;jettySize=auto;html=1;dashed=1;exitX=0.25;exitY=1;exitDx=0;exitDy=0;" edge="1" parent="1" source="4pHcyMfc-KCYcVZLZhmS-38" target="4pHcyMfc-KCYcVZLZhmS-39">
          <mxGeometry relative="1" as="geometry" />
        </mxCell>
        <mxCell id="4pHcyMfc-KCYcVZLZhmS-42" style="edgeStyle=orthogonalEdgeStyle;rounded=0;orthogonalLoop=1;jettySize=auto;html=1;exitX=0.75;exitY=1;exitDx=0;exitDy=0;entryX=0.5;entryY=0;entryDx=0;entryDy=0;dashed=1;" edge="1" parent="1" source="4pHcyMfc-KCYcVZLZhmS-38" target="4pHcyMfc-KCYcVZLZhmS-41">
          <mxGeometry relative="1" as="geometry" />
        </mxCell>
        <mxCell id="4pHcyMfc-KCYcVZLZhmS-38" value="PrÃ©voir" style="rounded=0;whiteSpace=wrap;html=1;dashed=1;" vertex="1" parent="1">
          <mxGeometry x="360" y="600" width="120" height="40" as="geometry" />
        </mxCell>
        <mxCell id="4pHcyMfc-KCYcVZLZhmS-39" value="TuEsMort" style="rounded=0;whiteSpace=wrap;html=1;" vertex="1" parent="1">
          <mxGeometry x="280" y="720" width="120" height="40" as="geometry" />
        </mxCell>
        <mxCell id="4pHcyMfc-KCYcVZLZhmS-41" value="ConfirmerKill" style="rounded=0;whiteSpace=wrap;html=1;" vertex="1" parent="1">
          <mxGeometry x="440" y="720" width="120" height="40" as="geometry" />
        </mxCell>
      </root>
    </mxGraphModel>
  </diagram>
</mxfile>
